<?xml version="1.0" encoding="UTF-8"?>
<!DOCTYPE svg PUBLIC "-//W3C//DTD SVG 1.0//EN" "http://www.w3.org/TR/2001/REC-SVG-20010904/DTD/svg10.dtd">
<!-- Creator: CorelDRAW -->
<svg xmlns="http://www.w3.org/2000/svg" xml:space="preserve" width="11.6831in" height="11.9939in" version="1.0" style="shape-rendering:geometricPrecision; text-rendering:geometricPrecision; image-rendering:optimizeQuality; fill-rule:evenodd; clip-rule:evenodd"
viewBox="0 0 3234.11 3320.15"
 xmlns:xlink="http://www.w3.org/1999/xlink"
 xmlns:xodm="http://www.corel.com/coreldraw/odm/2003">
 <defs>
  <style type="text/css">
   <![CDATA[
    .fil0 {fill:url(#id0)}
    .fil1 {fill:url(#id1)}
   ]]>
  </style>
  <linearGradient id="id0" gradientUnits="userSpaceOnUse" x1="1617.05" y1="1702.25" x2="1675.85" y2="3749.63">
   <stop offset="0" style="stop-opacity:1; stop-color:#253994"/>
   <stop offset="1" style="stop-opacity:1; stop-color:#00AFEF"/>
  </linearGradient>
  <radialGradient id="id1" gradientUnits="userSpaceOnUse" gradientTransform="matrix(1.36381 -0.592475 0.208662 0.42592 -861 1695)" cx="1649.18" cy="1251" r="1292.25" fx="1649.18" fy="1251">
   <stop offset="0" style="stop-opacity:1; stop-color:#FFF212"/>
   <stop offset="1" style="stop-opacity:1; stop-color:#F59F35"/>
  </radialGradient>
 </defs>
 <g id="Capa_x0020_1">
  <metadata id="CorelCorpID_0Corel-Layer"/>
  <path class="fil0" d="M1287.82 2372.47c143.01,0.51 282.71,6.87 415.09,37.78 121.74,28.42 240.8,58.89 356.22,92.17 -2.61,1.04 -163.16,-21.68 -194.37,-23.55 -233.73,-14.05 -444.39,-16.73 -676.67,20.51 -115.58,18.53 -231.63,30.06 -354.25,34.45 5.21,13.95 79.93,84.79 95.62,100.08l293.89 294.39c45.03,45.15 376.94,384.01 395.1,391.84 53.79,-46.97 288.17,-286.68 355.52,-354.57 20.71,-20.88 38.88,-38.71 59.6,-59.58 16.88,-17 48.59,-42.83 58.61,-62.24 -91.06,-23.73 -371.55,-44.5 -485.18,-47.21 -60.87,-1.45 -122.25,1.09 -182.01,-0.74l11.89 -5.73c0.78,-0.24 11.48,-2.27 13.08,-2.51 11,-1.66 20.61,-2.84 30.48,-4.35 18.73,-2.86 37.49,-5.72 56.68,-8.6 238.95,-35.89 380.99,-46.06 615.71,-22.43 39.71,4 34.63,-0.08 55.67,-21.12 69.03,-69.04 483.91,-477.4 488.92,-492.1 -208.96,-14.11 -317.53,-14.33 -534.72,-46.69 -458.21,-68.26 -833.51,-159.91 -1305.8,-75.16 -60.97,10.94 -222.15,52.67 -238.19,54.62 26.8,-19.28 260.5,-89.38 308.16,-103.34 419.81,-123.01 659.59,-102.16 1100.3,-51.01 292.62,33.96 507.09,59.43 810.23,63.79 37.14,0.53 40.25,-15.75 89.35,-66.02l205.07 -206.22c20.8,-20.91 91.67,-87.4 102.28,-106.68l-3234.11 -0c13.97,19.31 42.51,44.61 60.63,62.71 21.46,21.43 40.05,40.07 61.52,61.52 53.29,53.24 545.57,551.42 559.14,554.73 70.28,17.12 507.35,-9.08 606.54,-8.73z"/>
  <path class="fil1" d="M1539.51 1146.86c20.7,0.8 52.72,-4.22 78.95,-3.96 20.76,0.2 62.65,5.81 77.84,3.17l90.32 -977.28 -167.49 -168.79c-13.85,5.1 -75.46,71.17 -88.9,84.29 -15.73,15.36 -28.89,28.49 -44.27,44.14 -12.89,13.12 -37.69,27.82 -37.58,51.52l60.42 643.12c5.24,55.59 9.89,108.76 14.94,164.12 4.23,46.34 6.87,115.95 15.77,159.67zm-1537.95 476.71l1125.89 0.01 5.88 -67.7c-101.85,-4.85 -214.01,-18.36 -315.53,-27.69 -203.16,-18.66 -431.85,-34.36 -629.9,-56.17 -50.14,-5.52 -39.7,1.71 -103.71,65.17 -16.71,16.56 -72.78,68.97 -82.64,86.39zm2101.85 -65.92l6.64 65.17 1122.14 1.85c-4.66,-11.67 -100.71,-108.06 -121.85,-129.67 -18.57,-18.99 -19.65,-30.69 -59.74,-25.9 -193.58,23.11 -428.95,39.36 -629.61,59.04 -103.79,10.18 -214.02,24.23 -317.58,29.51zm-1401.46 -643.1c9.83,18.82 103.51,89.93 126.41,109.5l192.84 160.89c21.53,17.52 45.54,37.02 65.05,54.23 15.88,14 113.67,100.33 134.39,107.27 11.54,-21.51 34.19,-43.81 48.32,-58.59 18.18,-19.02 39.63,-31.92 57.8,-50.34 -4.77,-9.75 -398.27,-487.35 -427.25,-515.46 -12.87,6.72 -189.16,180.48 -197.54,192.51zm1197.07 315.27c19.48,21.12 52.01,38.91 84.17,77.39 5.05,6.04 6.72,8.83 11.78,15.07 6.7,8.27 8.12,10.65 15.65,16.52 19.93,-10.37 236.22,-193.99 258.07,-212.29 43.12,-36.12 82.02,-68.87 128.08,-106.36l129.47 -109.44c-8.69,-17.17 -77.37,-81.28 -96.33,-100.18l-100.18 -98.5c-16.3,10.51 -87.08,101.21 -107.78,125.57 -37.03,43.57 -69.76,84.17 -108.18,130.23 -14.41,17.28 -207.5,245.73 -214.75,261.99zm-1545.84 34.6l784.18 252.7c7.99,-13.14 20.53,-57.58 28,-75.06 7.96,-18.63 31.33,-57.45 34.06,-70.13 -28.93,-12.94 -50.36,-26.95 -78.01,-40.87l-232.6 -125.24c-40.28,-21.7 -292.63,-161.3 -312.26,-165.19 -19.52,14.98 -38.77,37.49 -57.07,55.23 -19.69,19.08 -36.75,35.86 -56.13,55.37 -20.51,20.65 -101.11,96.1 -110.16,113.19zm683.74 -684.36l323.78 630.82c19.97,-4.35 92.34,-48.96 144.79,-55.38 -4.26,-30.25 -222.23,-750.08 -240.04,-802.62 -8.65,4.37 -203.07,196.69 -228.53,227.18zm684.77 572.45c17.98,8.71 55.46,16.99 75.95,25.25 25.03,10.08 52.61,27.78 70.72,33.25 8.58,-8.92 330.01,-604.72 334.91,-623.26 -34.76,-39.1 -75.37,-76.99 -112.54,-114.72 -19.11,-19.4 -95.61,-101.54 -114.72,-112.25l-254.33 791.73zm315.43 223.41c4.79,16.81 24.26,47.24 32.94,67.58 10.76,25.22 15.15,52.77 25.15,77.22 21.1,-1.32 784.37,-231.62 800.09,-240.92l-217.54 -221.56c-16.87,-13.64 -21.51,-4.07 -60.77,16.45l-579.86 301.23z"/>
 </g>
</svg>
